{
    "asset" : {
        "generator" : "Khronos glTF Blender I/O v1.7.33",
        "version" : "2.0"
    },
    "scene" : 0,
    "scenes" : [
        {
            "name" : "Scene",
            "nodes" : [
                0
            ]
        }
    ],
    "nodes" : [
        {
            "mesh" : 0,
            "name" : "plate_combined_material",
            "rotation" : [
                0,
                0.04368582367897034,
                0,
                0.9990454316139221
            ]
        }
    ],
    "materials" : [
        {
            "doubleSided" : true,
            "name" : "PBR_thrustplate",
            "pbrMetallicRoughness" : {
                "baseColorTexture" : {
                    "index" : 0
                },
                "metallicRoughnessTexture" : {
                    "index" : 1
                }
            }
        }
    ],
    "meshes" : [
        {
            "name" : "Cylinder.016",
            "primitives" : [
                {
                    "attributes" : {
                        "POSITION" : 0,
                        "NORMAL" : 1,
                        "TEXCOORD_0" : 2
                    },
                    "indices" : 3,
                    "material" : 0
                }
            ]
        }
    ],
    "textures" : [
        {
            "sampler" : 0,
            "source" : 0
        },
        {
            "sampler" : 0,
            "source" : 1
        }
    ],
    "images" : [
        {
            "bufferView" : 4,
            "mimeType" : "image/png",
            "name" : "thrustplate_diffuse"
        },
        {
            "bufferView" : 5,
            "mimeType" : "image/png",
            "name" : "thrustplate_metalness-thrustplate_roughness"
        }
    ],
    "accessors" : [
        {
            "bufferView" : 0,
            "componentType" : 5126,
            "count" : 1529,
            "max" : [
                1.041782259941101,
                0.0004519224166870117,
                0.9962062835693359
            ],
            "min" : [
                -0.9962062835693359,
                -0.5797314643859863,
                -0.9962062239646912
            ],
            "type" : "VEC3"
        },
        {
            "bufferView" : 1,
            "componentType" : 5126,
            "count" : 1529,
            "type" : "VEC3"
        },
        {
            "bufferView" : 2,
            "componentType" : 5126,
            "count" : 1529,
            "type" : "VEC2"
        },
        {
            "bufferView" : 3,
            "componentType" : 5123,
            "count" : 4500,
            "type" : "SCALAR"
        }
    ],
    "bufferViews" : [
        {
            "buffer" : 0,
            "byteLength" : 18348,
            "byteOffset" : 0
        },
        {
            "buffer" : 0,
            "byteLength" : 18348,
            "byteOffset" : 18348
        },
        {
            "buffer" : 0,
            "byteLength" : 12232,
            "byteOffset" : 36696
        },
        {
            "buffer" : 0,
            "byteLength" : 9000,
            "byteOffset" : 48928
        },
        {
            "buffer" : 0,
            "byteLength" : 43148,
            "byteOffset" : 57928
        },
        {
            "buffer" : 0,
            "byteLength" : 42514,
            "byteOffset" : 101076
        }
    ],
    "samplers" : [
        {
            "magFilter" : 9729,
            "minFilter" : 9987
        }
    ],
    "buffers" : [
        {
            "byteLength" : 143592,
            "uri" : "data:application/octet-stream;base64,"
        }
    ]
}
