{
    "asset" : {
        "generator" : "Khronos glTF Blender I/O v1.7.33",
        "version" : "2.0"
    },
    "scene" : 0,
    "scenes" : [
        {
            "name" : "Scene",
            "nodes" : [
                0
            ]
        }
    ],
    "nodes" : [
        {
            "mesh" : 0,
            "name" : "engine_combined_material",
            "rotation" : [
                0,
                0.3826834559440613,
                0,
                0.9238795042037964
            ]
        }
    ],
    "materials" : [
        {
            "doubleSided" : true,
            "name" : "PBR_engine",
            "pbrMetallicRoughness" : {
                "baseColorTexture" : {
                    "index" : 0
                },
                "metallicRoughnessTexture" : {
                    "index" : 1
                }
            }
        }
    ],
    "meshes" : [
        {
            "name" : "Cube.004",
            "primitives" : [
                {
                    "attributes" : {
                        "POSITION" : 0,
                        "NORMAL" : 1,
                        "TEXCOORD_0" : 2
                    },
                    "indices" : 3,
                    "material" : 0
                }
            ]
        }
    ],
    "textures" : [
        {
            "sampler" : 0,
            "source" : 0
        },
        {
            "sampler" : 0,
            "source" : 1
        }
    ],
    "images" : [
        {
            "bufferView" : 4,
            "mimeType" : "image/png",
            "name" : "eng_diffuse"
        },
        {
            "bufferView" : 5,
            "mimeType" : "image/png",
            "name" : "eng_metalness-eng_roughness"
        }
    ],
    "accessors" : [
        {
            "bufferView" : 0,
            "componentType" : 5126,
            "count" : 2599,
            "max" : [
                0.38295966386795044,
                0.04086078703403473,
                0.3829595446586609
            ],
            "min" : [
                -0.3829595148563385,
                -1.4251174926757812,
                -0.3829595446586609
            ],
            "type" : "VEC3"
        },
        {
            "bufferView" : 1,
            "componentType" : 5126,
            "count" : 2599,
            "type" : "VEC3"
        },
        {
            "bufferView" : 2,
            "componentType" : 5126,
            "count" : 2599,
            "type" : "VEC2"
        },
        {
            "bufferView" : 3,
            "componentType" : 5123,
            "count" : 10572,
            "type" : "SCALAR"
        }
    ],
    "bufferViews" : [
        {
            "buffer" : 0,
            "byteLength" : 31188,
            "byteOffset" : 0
        },
        {
            "buffer" : 0,
            "byteLength" : 31188,
            "byteOffset" : 31188
        },
        {
            "buffer" : 0,
            "byteLength" : 20792,
            "byteOffset" : 62376
        },
        {
            "buffer" : 0,
            "byteLength" : 21144,
            "byteOffset" : 83168
        },
        {
            "buffer" : 0,
            "byteLength" : 25814,
            "byteOffset" : 104312
        },
        {
            "buffer" : 0,
            "byteLength" : 25628,
            "byteOffset" : 130128
        }
    ],
    "samplers" : [
        {
            "magFilter" : 9729,
            "minFilter" : 9987
        }
    ],
    "buffers" : [
        {
            "byteLength" : 155756,
            "uri" : "data:application/octet-stream;base64,"
        }
    ]
}
