{
    "asset" : {
        "generator" : "Khronos glTF Blender I/O v1.7.33",
        "version" : "2.0"
    },
    "scene" : 0,
    "scenes" : [
        {
            "name" : "Scene",
            "nodes" : [
                0
            ]
        }
    ],
    "nodes" : [
        {
            "mesh" : 0,
            "name" : "rwmodule_combined_material"
        }
    ],
    "materials" : [
        {
            "doubleSided" : true,
            "name" : "PBR_reactionwheel",
            "pbrMetallicRoughness" : {
                "baseColorTexture" : {
                    "index" : 0
                },
                "metallicRoughnessTexture" : {
                    "index" : 1
                }
            }
        }
    ],
    "meshes" : [
        {
            "name" : "Cylinder.019",
            "primitives" : [
                {
                    "attributes" : {
                        "POSITION" : 0,
                        "NORMAL" : 1,
                        "TEXCOORD_0" : 2
                    },
                    "indices" : 3,
                    "material" : 0
                }
            ]
        }
    ],
    "textures" : [
        {
            "sampler" : 0,
            "source" : 0
        },
        {
            "sampler" : 0,
            "source" : 1
        }
    ],
    "images" : [
        {
            "bufferView" : 4,
            "mimeType" : "image/png",
            "name" : "reactionwheel_diffuse"
        },
        {
            "bufferView" : 5,
            "mimeType" : "image/png",
            "name" : "reactionwheel_metalness-reactionwheel_roughness"
        }
    ],
    "accessors" : [
        {
            "bufferView" : 0,
            "componentType" : 5126,
            "count" : 1602,
            "max" : [
                1,
                0.25201088190078735,
                1
            ],
            "min" : [
                -1,
                -0.25201088190078735,
                -1
            ],
            "type" : "VEC3"
        },
        {
            "bufferView" : 1,
            "componentType" : 5126,
            "count" : 1602,
            "type" : "VEC3"
        },
        {
            "bufferView" : 2,
            "componentType" : 5126,
            "count" : 1602,
            "type" : "VEC2"
        },
        {
            "bufferView" : 3,
            "componentType" : 5123,
            "count" : 4644,
            "type" : "SCALAR"
        }
    ],
    "bufferViews" : [
        {
            "buffer" : 0,
            "byteLength" : 19224,
            "byteOffset" : 0
        },
        {
            "buffer" : 0,
            "byteLength" : 19224,
            "byteOffset" : 19224
        },
        {
            "buffer" : 0,
            "byteLength" : 12816,
            "byteOffset" : 38448
        },
        {
            "buffer" : 0,
            "byteLength" : 9288,
            "byteOffset" : 51264
        },
        {
            "buffer" : 0,
            "byteLength" : 50534,
            "byteOffset" : 60552
        },
        {
            "buffer" : 0,
            "byteLength" : 50476,
            "byteOffset" : 111088
        }
    ],
    "samplers" : [
        {
            "magFilter" : 9729,
            "minFilter" : 9987
        }
    ],
    "buffers" : [
        {
            "byteLength" : 161564,
            "uri" : "data:application/octet-stream;base64,"
        }
    ]
}
