{
    "asset" : {
        "generator" : "Khronos glTF Blender I/O v1.6.16",
        "version" : "2.0"
    },
    "scene" : 0,
    "scenes" : [
        {
            "name" : "Scene",
            "nodes" : [
                0,
                1,
                2,
                3,
                4
            ]
        }
    ],
    "nodes" : [
        {
            "mesh" : 0,
            "name" : "InnerTube",
            "scale" : [
                1,
                0.5,
                1
            ],
            "translation" : [
                0,
                -0.5,
                0
            ]
        },
        {
            "mesh" : 1,
            "name" : "Glow"
        },
        {
            "mesh" : 2,
            "name" : "ShockDiamonds",
            "scale" : [
                0.8238804340362549,
                0.5,
                0.8238804340362549
            ],
            "translation" : [
                0,
                -18.10015106201172,
                0
            ]
        },
        {
            "mesh" : 3,
            "name" : "CarbonTraces",
            "translation" : [
                0,
                -1,
                0
            ]
        },
        {
            "mesh" : 4,
            "name" : "OuterLayer",
            "scale" : [
                1,
                13.26079273223877,
                1
            ],
            "translation" : [
                0,
                -13.26079273223877,
                0
            ]
        }
    ],
    "meshes" : [
        {
            "extras" : {
                "targetNames" : [
                    "Thrust",
                    "Overexpanded",
                    "Underexpanded"
                ]
            },
            "name" : "Cylinder",
            "primitives" : [
                {
                    "attributes" : {
                        "POSITION" : 0,
                        "NORMAL" : 1,
                        "TANGENT" : 2,
                        "TEXCOORD_0" : 3
                    },
                    "indices" : 4,
                    "targets" : [
                        {
                            "POSITION" : 5,
                            "NORMAL" : 6,
                            "TANGENT" : 7
                        },
                        {
                            "POSITION" : 8,
                            "NORMAL" : 9,
                            "TANGENT" : 10
                        },
                        {
                            "POSITION" : 11,
                            "NORMAL" : 12,
                            "TANGENT" : 13
                        }
                    ]
                }
            ],
            "weights" : [
                0,
                0,
                0
            ]
        },
        {
            "name" : "Icosphere",
            "primitives" : [
                {
                    "attributes" : {
                        "POSITION" : 14,
                        "NORMAL" : 15,
                        "TANGENT" : 16,
                        "TEXCOORD_0" : 17
                    },
                    "indices" : 18
                }
            ]
        },
        {
            "extras" : {
                "targetNames" : [
                    "Thrust",
                    "Overexpanded",
                    "Underexpanded"
                ]
            },
            "name" : "Cylinder.009",
            "primitives" : [
                {
                    "attributes" : {
                        "POSITION" : 19,
                        "NORMAL" : 20,
                        "TANGENT" : 21,
                        "TEXCOORD_0" : 22
                    },
                    "indices" : 23,
                    "targets" : [
                        {
                            "POSITION" : 24,
                            "NORMAL" : 25,
                            "TANGENT" : 26
                        },
                        {
                            "POSITION" : 27,
                            "NORMAL" : 28,
                            "TANGENT" : 29
                        },
                        {
                            "POSITION" : 30,
                            "NORMAL" : 31,
                            "TANGENT" : 32
                        }
                    ]
                }
            ],
            "weights" : [
                0,
                0,
                0
            ]
        },
        {
            "name" : "Cylinder.010",
            "primitives" : [
                {
                    "attributes" : {
                        "POSITION" : 33,
                        "NORMAL" : 34,
                        "TANGENT" : 35,
                        "TEXCOORD_0" : 36
                    },
                    "indices" : 37
                }
            ]
        },
        {
            "name" : "Cylinder.011",
            "primitives" : [
                {
                    "attributes" : {
                        "POSITION" : 38,
                        "NORMAL" : 39,
                        "TANGENT" : 40,
                        "TEXCOORD_0" : 41
                    },
                    "indices" : 42
                }
            ]
        }
    ],
    "accessors" : [
        {
            "bufferView" : 0,
            "componentType" : 5126,
            "count" : 2688,
            "max" : [
                1.4629064798355103,
                1,
                1.4629063606262207
            ],
            "min" : [
                -1.4629062414169312,
                -39,
                -1.4629063606262207
            ],
            "type" : "VEC3"
        },
        {
            "bufferView" : 1,
            "componentType" : 5126,
            "count" : 2688,
            "type" : "VEC3"
        },
        {
            "bufferView" : 2,
            "componentType" : 5126,
            "count" : 2688,
            "type" : "VEC4"
        },
        {
            "bufferView" : 3,
            "componentType" : 5126,
            "count" : 2688,
            "type" : "VEC2"
        },
        {
            "bufferView" : 4,
            "componentType" : 5123,
            "count" : 4032,
            "type" : "SCALAR"
        },
        {
            "bufferView" : 5,
            "componentType" : 5126,
            "count" : 2688,
            "max" : [
                0,
                0,
                0
            ],
            "min" : [
                0,
                -40,
                0
            ],
            "type" : "VEC3"
        },
        {
            "bufferView" : 6,
            "componentType" : 5126,
            "count" : 2688,
            "type" : "VEC3"
        },
        {
            "bufferView" : 7,
            "componentType" : 5126,
            "count" : 2688,
            "type" : "VEC3"
        },
        {
            "bufferView" : 8,
            "componentType" : 5126,
            "count" : 2688,
            "max" : [
                0.8733046650886536,
                0,
                0.8733047246932983
            ],
            "min" : [
                -0.8733047842979431,
                0,
                -0.8733047246932983
            ],
            "type" : "VEC3"
        },
        {
            "bufferView" : 9,
            "componentType" : 5126,
            "count" : 2688,
            "type" : "VEC3"
        },
        {
            "bufferView" : 10,
            "componentType" : 5126,
            "count" : 2688,
            "type" : "VEC3"
        },
        {
            "bufferView" : 11,
            "componentType" : 5126,
            "count" : 2688,
            "max" : [
                24.30739402770996,
                0,
                24.30739402770996
            ],
            "min" : [
                -24.30739402770996,
                0,
                -24.30739402770996
            ],
            "type" : "VEC3"
        },
        {
            "bufferView" : 12,
            "componentType" : 5126,
            "count" : 2688,
            "type" : "VEC3"
        },
        {
            "bufferView" : 13,
            "componentType" : 5126,
            "count" : 2688,
            "type" : "VEC3"
        },
        {
            "bufferView" : 14,
            "componentType" : 5126,
            "count" : 240,
            "max" : [
                0.9510578513145447,
                0.34591710567474365,
                0.9999999403953552
            ],
            "min" : [
                -0.9510578513145447,
                -0.34591710567474365,
                -0.9999999403953552
            ],
            "type" : "VEC3"
        },
        {
            "bufferView" : 15,
            "componentType" : 5126,
            "count" : 240,
            "type" : "VEC3"
        },
        {
            "bufferView" : 16,
            "componentType" : 5126,
            "count" : 240,
            "type" : "VEC4"
        },
        {
            "bufferView" : 17,
            "componentType" : 5126,
            "count" : 240,
            "type" : "VEC2"
        },
        {
            "bufferView" : 18,
            "componentType" : 5123,
            "count" : 240,
            "type" : "SCALAR"
        },
        {
            "bufferView" : 19,
            "componentType" : 5126,
            "count" : 4608,
            "max" : [
                0.5658445954322815,
                33.521141052246094,
                0.5658445954322815
            ],
            "min" : [
                -0.5658445954322815,
                -3.0325682163238525,
                -0.5658445954322815
            ],
            "type" : "VEC3"
        },
        {
            "bufferView" : 20,
            "componentType" : 5126,
            "count" : 4608,
            "type" : "VEC3"
        },
        {
            "bufferView" : 21,
            "componentType" : 5126,
            "count" : 4608,
            "type" : "VEC4"
        },
        {
            "bufferView" : 22,
            "componentType" : 5126,
            "count" : 4608,
            "type" : "VEC2"
        },
        {
            "bufferView" : 23,
            "componentType" : 5123,
            "count" : 6912,
            "type" : "SCALAR"
        },
        {
            "bufferView" : 24,
            "componentType" : 5126,
            "count" : 4608,
            "max" : [
                0,
                -2.6791610717773438,
                0
            ],
            "min" : [
                0,
                -39.232872009277344,
                -2.220446049250313e-16
            ],
            "type" : "VEC3"
        },
        {
            "bufferView" : 25,
            "componentType" : 5126,
            "count" : 4608,
            "type" : "VEC3"
        },
        {
            "bufferView" : 26,
            "componentType" : 5126,
            "count" : 4608,
            "type" : "VEC3"
        },
        {
            "bufferView" : 27,
            "componentType" : 5126,
            "count" : 4608,
            "max" : [
                0.3767475485801697,
                0.6998214721679688,
                0.3767475187778473
            ],
            "min" : [
                -0.3767474889755249,
                -0.6998252868652344,
                -0.3767475187778473
            ],
            "type" : "VEC3"
        },
        {
            "bufferView" : 28,
            "componentType" : 5126,
            "count" : 4608,
            "type" : "VEC3"
        },
        {
            "bufferView" : 29,
            "componentType" : 5126,
            "count" : 4608,
            "type" : "VEC3"
        },
        {
            "bufferView" : 30,
            "componentType" : 5126,
            "count" : 4608,
            "max" : [
                26.292905807495117,
                0.6998214721679688,
                26.292905807495117
            ],
            "min" : [
                -26.292905807495117,
                -0.6998252868652344,
                -26.292905807495117
            ],
            "type" : "VEC3"
        },
        {
            "bufferView" : 31,
            "componentType" : 5126,
            "count" : 4608,
            "type" : "VEC3"
        },
        {
            "bufferView" : 32,
            "componentType" : 5126,
            "count" : 4608,
            "type" : "VEC3"
        },
        {
            "bufferView" : 33,
            "componentType" : 5126,
            "count" : 1280,
            "max" : [
                1.3492083549499512,
                1,
                1.3492082357406616
            ],
            "min" : [
                -1.3492083549499512,
                -2.0975570678710938,
                -1.3492083549499512
            ],
            "type" : "VEC3"
        },
        {
            "bufferView" : 34,
            "componentType" : 5126,
            "count" : 1280,
            "type" : "VEC3"
        },
        {
            "bufferView" : 35,
            "componentType" : 5126,
            "count" : 1280,
            "type" : "VEC4"
        },
        {
            "bufferView" : 36,
            "componentType" : 5126,
            "count" : 1280,
            "type" : "VEC2"
        },
        {
            "bufferView" : 37,
            "componentType" : 5123,
            "count" : 1920,
            "type" : "SCALAR"
        },
        {
            "bufferView" : 38,
            "componentType" : 5126,
            "count" : 6912,
            "max" : [
                2.3362877368927,
                1,
                2.336287498474121
            ],
            "min" : [
                -2.3362877368927,
                -1,
                -2.3362877368927
            ],
            "type" : "VEC3"
        },
        {
            "bufferView" : 39,
            "componentType" : 5126,
            "count" : 6912,
            "type" : "VEC3"
        },
        {
            "bufferView" : 40,
            "componentType" : 5126,
            "count" : 6912,
            "type" : "VEC4"
        },
        {
            "bufferView" : 41,
            "componentType" : 5126,
            "count" : 6912,
            "type" : "VEC2"
        },
        {
            "bufferView" : 42,
            "componentType" : 5123,
            "count" : 10368,
            "type" : "SCALAR"
        }
    ],
    "bufferViews" : [
        {
            "buffer" : 0,
            "byteLength" : 32256,
            "byteOffset" : 0
        },
        {
            "buffer" : 0,
            "byteLength" : 32256,
            "byteOffset" : 32256
        },
        {
            "buffer" : 0,
            "byteLength" : 43008,
            "byteOffset" : 64512
        },
        {
            "buffer" : 0,
            "byteLength" : 21504,
            "byteOffset" : 107520
        },
        {
            "buffer" : 0,
            "byteLength" : 8064,
            "byteOffset" : 129024
        },
        {
            "buffer" : 0,
            "byteLength" : 32256,
            "byteOffset" : 137088
        },
        {
            "buffer" : 0,
            "byteLength" : 32256,
            "byteOffset" : 169344
        },
        {
            "buffer" : 0,
            "byteLength" : 32256,
            "byteOffset" : 201600
        },
        {
            "buffer" : 0,
            "byteLength" : 32256,
            "byteOffset" : 233856
        },
        {
            "buffer" : 0,
            "byteLength" : 32256,
            "byteOffset" : 266112
        },
        {
            "buffer" : 0,
            "byteLength" : 32256,
            "byteOffset" : 298368
        },
        {
            "buffer" : 0,
            "byteLength" : 32256,
            "byteOffset" : 330624
        },
        {
            "buffer" : 0,
            "byteLength" : 32256,
            "byteOffset" : 362880
        },
        {
            "buffer" : 0,
            "byteLength" : 32256,
            "byteOffset" : 395136
        },
        {
            "buffer" : 0,
            "byteLength" : 2880,
            "byteOffset" : 427392
        },
        {
            "buffer" : 0,
            "byteLength" : 2880,
            "byteOffset" : 430272
        },
        {
            "buffer" : 0,
            "byteLength" : 3840,
            "byteOffset" : 433152
        },
        {
            "buffer" : 0,
            "byteLength" : 1920,
            "byteOffset" : 436992
        },
        {
            "buffer" : 0,
            "byteLength" : 480,
            "byteOffset" : 438912
        },
        {
            "buffer" : 0,
            "byteLength" : 55296,
            "byteOffset" : 439392
        },
        {
            "buffer" : 0,
            "byteLength" : 55296,
            "byteOffset" : 494688
        },
        {
            "buffer" : 0,
            "byteLength" : 73728,
            "byteOffset" : 549984
        },
        {
            "buffer" : 0,
            "byteLength" : 36864,
            "byteOffset" : 623712
        },
        {
            "buffer" : 0,
            "byteLength" : 13824,
            "byteOffset" : 660576
        },
        {
            "buffer" : 0,
            "byteLength" : 55296,
            "byteOffset" : 674400
        },
        {
            "buffer" : 0,
            "byteLength" : 55296,
            "byteOffset" : 729696
        },
        {
            "buffer" : 0,
            "byteLength" : 55296,
            "byteOffset" : 784992
        },
        {
            "buffer" : 0,
            "byteLength" : 55296,
            "byteOffset" : 840288
        },
        {
            "buffer" : 0,
            "byteLength" : 55296,
            "byteOffset" : 895584
        },
        {
            "buffer" : 0,
            "byteLength" : 55296,
            "byteOffset" : 950880
        },
        {
            "buffer" : 0,
            "byteLength" : 55296,
            "byteOffset" : 1006176
        },
        {
            "buffer" : 0,
            "byteLength" : 55296,
            "byteOffset" : 1061472
        },
        {
            "buffer" : 0,
            "byteLength" : 55296,
            "byteOffset" : 1116768
        },
        {
            "buffer" : 0,
            "byteLength" : 15360,
            "byteOffset" : 1172064
        },
        {
            "buffer" : 0,
            "byteLength" : 15360,
            "byteOffset" : 1187424
        },
        {
            "buffer" : 0,
            "byteLength" : 20480,
            "byteOffset" : 1202784
        },
        {
            "buffer" : 0,
            "byteLength" : 10240,
            "byteOffset" : 1223264
        },
        {
            "buffer" : 0,
            "byteLength" : 3840,
            "byteOffset" : 1233504
        },
        {
            "buffer" : 0,
            "byteLength" : 82944,
            "byteOffset" : 1237344
        },
        {
            "buffer" : 0,
            "byteLength" : 82944,
            "byteOffset" : 1320288
        },
        {
            "buffer" : 0,
            "byteLength" : 110592,
            "byteOffset" : 1403232
        },
        {
            "buffer" : 0,
            "byteLength" : 55296,
            "byteOffset" : 1513824
        },
        {
            "buffer" : 0,
            "byteLength" : 20736,
            "byteOffset" : 1569120
        }
    ],
    "buffers" : [
        {
            "byteLength" : 1589856,
            "uri" : "data:application/octet-stream;base64,"
        }
    ]
}
