{
    "asset" : {
        "generator" : "Khronos glTF Blender I/O v1.5.17",
        "version" : "2.0"
    },
    "scene" : 0,
    "scenes" : [
        {
            "name" : "Scene",
            "nodes" : [
                0,
                1,
                2
            ]
        }
    ],
    "nodes" : [
        {
            "mesh" : 0,
            "name" : "outer_a",
            "scale" : [
                2.5451138019561768,
                15.270683288574219,
                2.5451138019561768
            ]
        },
        {
            "mesh" : 1,
            "name" : "diamonds"
        },
        {
            "mesh" : 2,
            "name" : "outer_b",
            "scale" : [
                2.7592060565948486,
                15.270683288574219,
                2.7592060565948486
            ]
        }
    ],
    "meshes" : [
        {
            "name" : "outer_a",
            "primitives" : [
                {
                    "attributes" : {
                        "POSITION" : 0,
                        "NORMAL" : 1,
                        "TANGENT" : 2,
                        "TEXCOORD_0" : 3
                    },
                    "indices" : 4
                }
            ]
        },
        {
            "name" : "diamonds",
            "primitives" : [
                {
                    "attributes" : {
                        "POSITION" : 5,
                        "NORMAL" : 6,
                        "TANGENT" : 7,
                        "TEXCOORD_0" : 8
                    },
                    "indices" : 9
                }
            ]
        },
        {
            "name" : "outer_b",
            "primitives" : [
                {
                    "attributes" : {
                        "POSITION" : 10,
                        "NORMAL" : 11,
                        "TANGENT" : 12,
                        "TEXCOORD_0" : 13
                    },
                    "indices" : 14
                }
            ]
        }
    ],
    "accessors" : [
        {
            "bufferView" : 0,
            "componentType" : 5126,
            "count" : 448,
            "max" : [
                0.7362282276153564,
                -0.001489102840423584,
                0.7362284064292908
            ],
            "min" : [
                -0.7362279891967773,
                -0.9822742938995361,
                -0.7362278699874878
            ],
            "type" : "VEC3"
        },
        {
            "bufferView" : 1,
            "componentType" : 5126,
            "count" : 448,
            "type" : "VEC3"
        },
        {
            "bufferView" : 2,
            "componentType" : 5126,
            "count" : 448,
            "type" : "VEC4"
        },
        {
            "bufferView" : 3,
            "componentType" : 5126,
            "count" : 448,
            "type" : "VEC2"
        },
        {
            "bufferView" : 4,
            "componentType" : 5123,
            "count" : 672,
            "type" : "SCALAR"
        },
        {
            "bufferView" : 5,
            "componentType" : 5126,
            "count" : 1536,
            "max" : [
                0.9999997615814209,
                -0.07612043619155884,
                0.9999995231628418
            ],
            "min" : [
                -0.9999996423721313,
                -15.005487442016602,
                -1
            ],
            "type" : "VEC3"
        },
        {
            "bufferView" : 6,
            "componentType" : 5126,
            "count" : 1536,
            "type" : "VEC3"
        },
        {
            "bufferView" : 7,
            "componentType" : 5126,
            "count" : 1536,
            "type" : "VEC4"
        },
        {
            "bufferView" : 8,
            "componentType" : 5126,
            "count" : 1536,
            "type" : "VEC2"
        },
        {
            "bufferView" : 9,
            "componentType" : 5123,
            "count" : 2304,
            "type" : "SCALAR"
        },
        {
            "bufferView" : 10,
            "componentType" : 5126,
            "count" : 448,
            "max" : [
                0.8384526968002319,
                -0.001489102840423584,
                0.8384528756141663
            ],
            "min" : [
                -0.8384524583816528,
                -0.9822742342948914,
                -0.8384523391723633
            ],
            "type" : "VEC3"
        },
        {
            "bufferView" : 11,
            "componentType" : 5126,
            "count" : 448,
            "type" : "VEC3"
        },
        {
            "bufferView" : 12,
            "componentType" : 5126,
            "count" : 448,
            "type" : "VEC4"
        },
        {
            "bufferView" : 13,
            "componentType" : 5126,
            "count" : 448,
            "type" : "VEC2"
        },
        {
            "bufferView" : 14,
            "componentType" : 5123,
            "count" : 672,
            "type" : "SCALAR"
        }
    ],
    "bufferViews" : [
        {
            "buffer" : 0,
            "byteLength" : 5376,
            "byteOffset" : 0
        },
        {
            "buffer" : 0,
            "byteLength" : 5376,
            "byteOffset" : 5376
        },
        {
            "buffer" : 0,
            "byteLength" : 7168,
            "byteOffset" : 10752
        },
        {
            "buffer" : 0,
            "byteLength" : 3584,
            "byteOffset" : 17920
        },
        {
            "buffer" : 0,
            "byteLength" : 1344,
            "byteOffset" : 21504
        },
        {
            "buffer" : 0,
            "byteLength" : 18432,
            "byteOffset" : 22848
        },
        {
            "buffer" : 0,
            "byteLength" : 18432,
            "byteOffset" : 41280
        },
        {
            "buffer" : 0,
            "byteLength" : 24576,
            "byteOffset" : 59712
        },
        {
            "buffer" : 0,
            "byteLength" : 12288,
            "byteOffset" : 84288
        },
        {
            "buffer" : 0,
            "byteLength" : 4608,
            "byteOffset" : 96576
        },
        {
            "buffer" : 0,
            "byteLength" : 5376,
            "byteOffset" : 101184
        },
        {
            "buffer" : 0,
            "byteLength" : 5376,
            "byteOffset" : 106560
        },
        {
            "buffer" : 0,
            "byteLength" : 7168,
            "byteOffset" : 111936
        },
        {
            "buffer" : 0,
            "byteLength" : 3584,
            "byteOffset" : 119104
        },
        {
            "buffer" : 0,
            "byteLength" : 1344,
            "byteOffset" : 122688
        }
    ],
    "buffers" : [
        {
            "byteLength" : 124032,
            "uri" : "data:application/octet-stream;base64,"
        }
    ]
}
