{
    "asset" : {
        "generator" : "Khronos glTF Blender I/O v1.5.17",
        "version" : "2.0"
    },
    "scene" : 0,
    "scenes" : [
        {
            "name" : "Scene",
            "nodes" : [
                0,
                1
            ]
        }
    ],
    "nodes" : [
        {
            "mesh" : 0,
            "name" : "inner"
        },
        {
            "mesh" : 1,
            "name" : "outer"
        }
    ],
    "meshes" : [
        {
            "name" : "Cylinder",
            "primitives" : [
                {
                    "attributes" : {
                        "POSITION" : 0,
                        "NORMAL" : 1,
                        "TANGENT" : 2,
                        "TEXCOORD_0" : 3
                    },
                    "indices" : 4
                }
            ]
        },
        {
            "name" : "Cylinder.001",
            "primitives" : [
                {
                    "attributes" : {
                        "POSITION" : 5,
                        "NORMAL" : 6,
                        "TEXCOORD_0" : 7
                    },
                    "indices" : 8
                }
            ]
        }
    ],
    "accessors" : [
        {
            "bufferView" : 0,
            "componentType" : 5126,
            "count" : 102,
            "max" : [
                1,
                -0.015591621398925781,
                1
            ],
            "min" : [
                -1,
                -13.235891342163086,
                -1
            ],
            "type" : "VEC3"
        },
        {
            "bufferView" : 1,
            "componentType" : 5126,
            "count" : 102,
            "type" : "VEC3"
        },
        {
            "bufferView" : 2,
            "componentType" : 5126,
            "count" : 102,
            "type" : "VEC4"
        },
        {
            "bufferView" : 3,
            "componentType" : 5126,
            "count" : 102,
            "type" : "VEC2"
        },
        {
            "bufferView" : 4,
            "componentType" : 5123,
            "count" : 384,
            "type" : "SCALAR"
        },
        {
            "bufferView" : 5,
            "componentType" : 5126,
            "count" : 457,
            "max" : [
                2,
                0.00028705596923828125,
                2
            ],
            "min" : [
                -2,
                -19.999713897705078,
                -2
            ],
            "type" : "VEC3"
        },
        {
            "bufferView" : 6,
            "componentType" : 5126,
            "count" : 457,
            "type" : "VEC3"
        },
        {
            "bufferView" : 7,
            "componentType" : 5126,
            "count" : 457,
            "type" : "VEC2"
        },
        {
            "bufferView" : 8,
            "componentType" : 5123,
            "count" : 2388,
            "type" : "SCALAR"
        }
    ],
    "bufferViews" : [
        {
            "buffer" : 0,
            "byteLength" : 1224,
            "byteOffset" : 0
        },
        {
            "buffer" : 0,
            "byteLength" : 1224,
            "byteOffset" : 1224
        },
        {
            "buffer" : 0,
            "byteLength" : 1632,
            "byteOffset" : 2448
        },
        {
            "buffer" : 0,
            "byteLength" : 816,
            "byteOffset" : 4080
        },
        {
            "buffer" : 0,
            "byteLength" : 768,
            "byteOffset" : 4896
        },
        {
            "buffer" : 0,
            "byteLength" : 5484,
            "byteOffset" : 5664
        },
        {
            "buffer" : 0,
            "byteLength" : 5484,
            "byteOffset" : 11148
        },
        {
            "buffer" : 0,
            "byteLength" : 3656,
            "byteOffset" : 16632
        },
        {
            "buffer" : 0,
            "byteLength" : 4776,
            "byteOffset" : 20288
        }
    ],
    "buffers" : [
        {
            "byteLength" : 25064,
            "uri" : "data:application/octet-stream;base64,"
        }
    ]
}
