{
    "asset" : {
        "generator" : "Khronos glTF Blender I/O v1.7.33",
        "version" : "2.0"
    },
    "scene" : 0,
    "scenes" : [
        {
            "name" : "Scene",
            "nodes" : [
                11
            ]
        }
    ],
    "nodes" : [
        {
            "name" : "_2",
            "translation" : [
                0,
                0.44999998807907104,
                0
            ]
        },
        {
            "name" : "_6",
            "rotation" : [
                1,
                0,
                0,
                0
            ],
            "translation" : [
                0,
                -0.44999998807907104,
                0
            ]
        },
        {
            "name" : "_0",
            "rotation" : [
                -0.502527117729187,
                -0.5025270581245422,
                -0.49746009707450867,
                0.49746009707450867
            ],
            "translation" : [
                0.44999995827674866,
                0,
                0
            ]
        },
        {
            "name" : "_4",
            "rotation" : [
                -0.49715131521224976,
                0.49715131521224976,
                0.5028325915336609,
                0.5028325319290161
            ],
            "translation" : [
                -0.45000001788139343,
                0,
                0
            ]
        },
        {
            "name" : "_1",
            "rotation" : [
                -0.1464466005563736,
                -0.3535533845424652,
                -0.3535533845424652,
                0.8535534143447876
            ],
            "scale" : [
                0.9999999403953552,
                0.9999998807907104,
                0.9999998807907104
            ],
            "translation" : [
                0.318198025226593,
                0.318198025226593,
                0
            ]
        },
        {
            "name" : "_3",
            "rotation" : [
                -0.1464466005563736,
                0.3535533845424652,
                0.3535533845424652,
                0.8535534143447876
            ],
            "scale" : [
                0.9999999403953552,
                0.9999998807907104,
                0.9999998807907104
            ],
            "translation" : [
                -0.318198025226593,
                0.318198025226593,
                0
            ]
        },
        {
            "name" : "_5",
            "rotation" : [
                -0.8535534143447876,
                0.3535533845424652,
                0.3535533845424652,
                0.1464466005563736
            ],
            "scale" : [
                0.9999999403953552,
                0.9999998807907104,
                0.9999998807907104
            ],
            "translation" : [
                -0.318198025226593,
                -0.318198025226593,
                0
            ]
        },
        {
            "name" : "_7",
            "rotation" : [
                -0.8535534143447876,
                -0.3535533845424652,
                -0.3535533845424652,
                0.1464466005563736
            ],
            "scale" : [
                0.9999999403953552,
                0.9999998807907104,
                0.9999998807907104
            ],
            "translation" : [
                0.318198025226593,
                -0.318198025226593,
                0
            ]
        },
        {
            "name" : "Forward",
            "rotation" : [
                -0.7071068286895752,
                -1.7701678416415234e-06,
                1.7701678416415234e-06,
                0.7071068286895752
            ],
            "translation" : [
                0,
                0,
                -0.44999998807907104
            ]
        },
        {
            "name" : "Backward",
            "rotation" : [
                0,
                0.7071068286895752,
                0.7071068286895752,
                0
            ],
            "translation" : [
                0,
                0,
                0.44999998807907104
            ]
        },
        {
            "mesh" : 0,
            "name" : "Icosphere",
            "skin" : 0
        },
        {
            "children" : [
                10,
                0,
                1,
                2,
                3,
                4,
                5,
                6,
                7,
                8,
                9
            ],
            "name" : "Armature"
        }
    ],
    "meshes" : [
        {
            "name" : "Icosphere",
            "primitives" : [
                {
                    "attributes" : {
                        "POSITION" : 0,
                        "NORMAL" : 1,
                        "TANGENT" : 2,
                        "TEXCOORD_0" : 3,
                        "JOINTS_0" : 4,
                        "WEIGHTS_0" : 5
                    },
                    "indices" : 6
                }
            ]
        }
    ],
    "skins" : [
        {
            "inverseBindMatrices" : 7,
            "joints" : [
                0,
                1,
                2,
                3,
                4,
                5,
                6,
                7,
                8,
                9
            ],
            "name" : "Armature"
        }
    ],
    "accessors" : [
        {
            "bufferView" : 0,
            "componentType" : 5126,
            "count" : 729,
            "max" : [
                1,
                1,
                0.9999999403953552
            ],
            "min" : [
                -0.9999999403953552,
                -1,
                -0.9999999403953552
            ],
            "type" : "VEC3"
        },
        {
            "bufferView" : 1,
            "componentType" : 5126,
            "count" : 729,
            "type" : "VEC3"
        },
        {
            "bufferView" : 2,
            "componentType" : 5126,
            "count" : 729,
            "type" : "VEC4"
        },
        {
            "bufferView" : 3,
            "componentType" : 5126,
            "count" : 729,
            "type" : "VEC2"
        },
        {
            "bufferView" : 4,
            "componentType" : 5121,
            "count" : 729,
            "type" : "VEC4"
        },
        {
            "bufferView" : 5,
            "componentType" : 5126,
            "count" : 729,
            "type" : "VEC4"
        },
        {
            "bufferView" : 6,
            "componentType" : 5123,
            "count" : 3840,
            "type" : "SCALAR"
        },
        {
            "bufferView" : 7,
            "componentType" : 5126,
            "count" : 10,
            "type" : "MAT4"
        }
    ],
    "bufferViews" : [
        {
            "buffer" : 0,
            "byteLength" : 8748,
            "byteOffset" : 0
        },
        {
            "buffer" : 0,
            "byteLength" : 8748,
            "byteOffset" : 8748
        },
        {
            "buffer" : 0,
            "byteLength" : 11664,
            "byteOffset" : 17496
        },
        {
            "buffer" : 0,
            "byteLength" : 5832,
            "byteOffset" : 29160
        },
        {
            "buffer" : 0,
            "byteLength" : 2916,
            "byteOffset" : 34992
        },
        {
            "buffer" : 0,
            "byteLength" : 11664,
            "byteOffset" : 37908
        },
        {
            "buffer" : 0,
            "byteLength" : 7680,
            "byteOffset" : 49572
        },
        {
            "buffer" : 0,
            "byteLength" : 640,
            "byteOffset" : 57252
        }
    ],
    "buffers" : [
        {
            "byteLength" : 57892,
            "uri" : "data:application/octet-stream;base64,"
        }
    ]
}
