{
    "asset" : {
        "generator" : "Khronos glTF Blender I/O v1.7.33",
        "version" : "2.0"
    },
    "scene" : 0,
    "scenes" : [
        {
            "name" : "Scene",
            "nodes" : [
                17
            ]
        }
    ],
    "nodes" : [
        {
            "name" : "Forward",
            "rotation" : [
                -0.5,
                -0.5,
                -0.5,
                0.5
            ],
            "translation" : [
                0.5,
                0,
                0
            ]
        },
        {
            "name" : "bone_1",
            "rotation" : [
                -0.5254819989204407,
                -0.47314760088920593,
                -0.47314760088920593,
                0.5254820585250854
            ],
            "scale" : [
                0.9999999403953552,
                0.9999999403953552,
                1
            ],
            "translation" : [
                0.497261106967926,
                0,
                -0.05226273834705353
            ]
        },
        {
            "name" : "bone_2",
            "rotation" : [
                -0.5495238304138184,
                -0.4449984133243561,
                -0.4449984133243561,
                0.5495238304138184
            ],
            "translation" : [
                0.4890744388103485,
                0,
                -0.10395291447639465
            ]
        },
        {
            "name" : "bone_3",
            "rotation" : [
                -0.5720595121383667,
                -0.4156295359134674,
                -0.4156295657157898,
                0.5720595121383667
            ],
            "scale" : [
                1,
                0.9999999403953552,
                1
            ],
            "translation" : [
                0.47552964091300964,
                0,
                -0.1545042246580124
            ]
        },
        {
            "name" : "bone_4",
            "rotation" : [
                -0.5930272936820984,
                -0.38512152433395386,
                -0.38512152433395386,
                0.5930273532867432
            ],
            "translation" : [
                0.45677515864372253,
                0,
                -0.203362837433815
            ]
        },
        {
            "name" : "bone_5",
            "rotation" : [
                -0.61236971616745,
                -0.3535580039024353,
                -0.3535580039024353,
                0.6123697757720947
            ],
            "translation" : [
                0.43301644921302795,
                0,
                -0.24999350309371948
            ]
        },
        {
            "name" : "bone_6",
            "rotation" : [
                -0.6300339102745056,
                -0.32102546095848083,
                -0.32102546095848083,
                0.6300339102745056
            ],
            "translation" : [
                0.40451377630233765,
                0,
                -0.29388535022735596
            ]
        },
        {
            "name" : "bone_7",
            "rotation" : [
                -0.6459711790084839,
                -0.28761300444602966,
                -0.28761303424835205,
                0.6459711790084839
            ],
            "scale" : [
                1,
                0.9999998807907104,
                1
            ],
            "translation" : [
                0.37157943844795227,
                0,
                -0.33455750346183777
            ]
        },
        {
            "name" : "bone_8",
            "rotation" : [
                -0.6601380109786987,
                -0.2534123957157135,
                -0.2534123957157135,
                0.6601380705833435
            ],
            "translation" : [
                0.33457422256469727,
                0,
                -0.3715643882751465
            ]
        },
        {
            "name" : "bone_9",
            "rotation" : [
                -0.6724955439567566,
                -0.21851706504821777,
                -0.21851707994937897,
                0.6724956035614014
            ],
            "scale" : [
                1.0000001192092896,
                1.0000001192092896,
                1
            ],
            "translation" : [
                0.2939036190509796,
                0,
                -0.4045006036758423
            ]
        },
        {
            "name" : "bone_10",
            "rotation" : [
                -0.6830100417137146,
                -0.18302300572395325,
                -0.18302303552627563,
                0.683009922504425
            ],
            "scale" : [
                0.9999999403953552,
                0.9999999403953552,
                1
            ],
            "translation" : [
                0.25001299381256104,
                0,
                -0.4330052137374878
            ]
        },
        {
            "name" : "bone_11",
            "rotation" : [
                -0.6916523575782776,
                -0.14702710509300232,
                -0.14702709019184113,
                0.6916524171829224
            ],
            "scale" : [
                0.9999999403953552,
                1,
                1
            ],
            "translation" : [
                0.2033834010362625,
                0,
                -0.4567660093307495
            ]
        },
        {
            "name" : "bone_12",
            "rotation" : [
                -0.6983991861343384,
                -0.11062842607498169,
                -0.11062844842672348,
                0.6983991265296936
            ],
            "scale" : [
                0.9999999403953552,
                0.9999999403953552,
                1
            ],
            "translation" : [
                0.15452563762664795,
                0,
                -0.4755227565765381
            ]
        },
        {
            "name" : "bone_13",
            "rotation" : [
                -0.7032318115234375,
                -0.07392649352550507,
                -0.07392650842666626,
                0.7032317519187927
            ],
            "scale" : [
                1,
                0.9999999403953552,
                1
            ],
            "translation" : [
                0.10397491604089737,
                0,
                -0.48906975984573364
            ]
        },
        {
            "name" : "bone_14",
            "rotation" : [
                -0.70613694190979,
                -0.037021927535533905,
                -0.037021927535533905,
                0.70613694190979
            ],
            "translation" : [
                0.05228511616587639,
                0,
                -0.4972587525844574
            ]
        },
        {
            "name" : "bone_15",
            "rotation" : [
                -0.7071068286895752,
                -1.5909919966361485e-05,
                -1.5909919966361485e-05,
                0.7071068286895752
            ],
            "translation" : [
                2.2500022168969736e-05,
                0,
                -0.5
            ]
        },
        {
            "mesh" : 0,
            "name" : "Circle",
            "skin" : 0
        },
        {
            "children" : [
                16,
                0,
                1,
                2,
                3,
                4,
                5,
                6,
                7,
                8,
                9,
                10,
                11,
                12,
                13,
                14,
                15
            ],
            "name" : "Armature"
        }
    ],
    "meshes" : [
        {
            "name" : "Circle",
            "primitives" : [
                {
                    "attributes" : {
                        "POSITION" : 0,
                        "NORMAL" : 1,
                        "TANGENT" : 2,
                        "TEXCOORD_0" : 3,
                        "JOINTS_0" : 4,
                        "WEIGHTS_0" : 5
                    },
                    "indices" : 6
                }
            ]
        }
    ],
    "skins" : [
        {
            "inverseBindMatrices" : 7,
            "joints" : [
                0,
                1,
                2,
                3,
                4,
                5,
                6,
                7,
                8,
                9,
                10,
                11,
                12,
                13,
                14,
                15
            ],
            "name" : "Armature"
        }
    ],
    "accessors" : [
        {
            "bufferView" : 0,
            "componentType" : 5126,
            "count" : 517,
            "max" : [
                1,
                0.05000002682209015,
                0
            ],
            "min" : [
                -1.3988569974899292,
                -0.050000086426734924,
                -1.0000001192092896
            ],
            "type" : "VEC3"
        },
        {
            "bufferView" : 1,
            "componentType" : 5126,
            "count" : 517,
            "type" : "VEC3"
        },
        {
            "bufferView" : 2,
            "componentType" : 5126,
            "count" : 517,
            "type" : "VEC4"
        },
        {
            "bufferView" : 3,
            "componentType" : 5126,
            "count" : 517,
            "type" : "VEC2"
        },
        {
            "bufferView" : 4,
            "componentType" : 5121,
            "count" : 517,
            "type" : "VEC4"
        },
        {
            "bufferView" : 5,
            "componentType" : 5126,
            "count" : 517,
            "type" : "VEC4"
        },
        {
            "bufferView" : 6,
            "componentType" : 5123,
            "count" : 1128,
            "type" : "SCALAR"
        },
        {
            "bufferView" : 7,
            "componentType" : 5126,
            "count" : 16,
            "type" : "MAT4"
        }
    ],
    "bufferViews" : [
        {
            "buffer" : 0,
            "byteLength" : 6204,
            "byteOffset" : 0
        },
        {
            "buffer" : 0,
            "byteLength" : 6204,
            "byteOffset" : 6204
        },
        {
            "buffer" : 0,
            "byteLength" : 8272,
            "byteOffset" : 12408
        },
        {
            "buffer" : 0,
            "byteLength" : 4136,
            "byteOffset" : 20680
        },
        {
            "buffer" : 0,
            "byteLength" : 2068,
            "byteOffset" : 24816
        },
        {
            "buffer" : 0,
            "byteLength" : 8272,
            "byteOffset" : 26884
        },
        {
            "buffer" : 0,
            "byteLength" : 2256,
            "byteOffset" : 35156
        },
        {
            "buffer" : 0,
            "byteLength" : 1024,
            "byteOffset" : 37412
        }
    ],
    "buffers" : [
        {
            "byteLength" : 38436,
            "uri" : "data:application/octet-stream;base64,"
        }
    ]
}
