{
    "asset" : {
        "generator" : "Khronos glTF Blender I/O v1.7.33",
        "version" : "2.0"
    },
    "scene" : 0,
    "scenes" : [
        {
            "name" : "Scene",
            "nodes" : [
                0
            ]
        }
    ],
    "nodes" : [
        {
            "mesh" : 0,
            "name" : "combined_materials",
            "rotation" : [
                0,
                0.04368582367897034,
                0,
                0.9990454316139221
            ]
        }
    ],
    "materials" : [
        {
            "doubleSided" : true,
            "name" : "PBR",
            "pbrMetallicRoughness" : {
                "baseColorTexture" : {
                    "index" : 0
                },
                "metallicRoughnessTexture" : {
                    "index" : 1
                }
            }
        }
    ],
    "meshes" : [
        {
            "name" : "Cylinder.013",
            "primitives" : [
                {
                    "attributes" : {
                        "POSITION" : 0,
                        "NORMAL" : 1,
                        "TEXCOORD_0" : 2
                    },
                    "indices" : 3,
                    "material" : 0
                }
            ]
        }
    ],
    "textures" : [
        {
            "sampler" : 0,
            "source" : 0
        },
        {
            "sampler" : 0,
            "source" : 1
        }
    ],
    "images" : [
        {
            "bufferView" : 4,
            "mimeType" : "image/png",
            "name" : "Diffuse"
        },
        {
            "bufferView" : 5,
            "mimeType" : "image/png",
            "name" : "Metal-Roughness"
        }
    ],
    "accessors" : [
        {
            "bufferView" : 0,
            "componentType" : 5126,
            "count" : 2124,
            "max" : [
                1.041782259941101,
                1.5,
                0.9962062835693359
            ],
            "min" : [
                -0.9962062835693359,
                -1.5,
                -0.9962062239646912
            ],
            "type" : "VEC3"
        },
        {
            "bufferView" : 1,
            "componentType" : 5126,
            "count" : 2124,
            "type" : "VEC3"
        },
        {
            "bufferView" : 2,
            "componentType" : 5126,
            "count" : 2124,
            "type" : "VEC2"
        },
        {
            "bufferView" : 3,
            "componentType" : 5123,
            "count" : 6954,
            "type" : "SCALAR"
        }
    ],
    "bufferViews" : [
        {
            "buffer" : 0,
            "byteLength" : 25488,
            "byteOffset" : 0
        },
        {
            "buffer" : 0,
            "byteLength" : 25488,
            "byteOffset" : 25488
        },
        {
            "buffer" : 0,
            "byteLength" : 16992,
            "byteOffset" : 50976
        },
        {
            "buffer" : 0,
            "byteLength" : 13908,
            "byteOffset" : 67968
        },
        {
            "buffer" : 0,
            "byteLength" : 34420,
            "byteOffset" : 81876
        },
        {
            "buffer" : 0,
            "byteLength" : 15796,
            "byteOffset" : 116296
        }
    ],
    "samplers" : [
        {
            "magFilter" : 9729,
            "minFilter" : 9987
        }
    ],
    "buffers" : [
        {
            "byteLength" : 132092,
            "uri" : "data:application/octet-stream;base64,"
        }
    ]
}
