{
    "asset" : {
        "generator" : "Khronos glTF Blender I/O v1.7.33",
        "version" : "2.0"
    },
    "scene" : 0,
    "scenes" : [
        {
            "name" : "Scene",
            "nodes" : [
                0
            ]
        }
    ],
    "nodes" : [
        {
            "mesh" : 0,
            "name" : "5m_tank_combined_material",
            "rotation" : [
                0,
                0.04368582367897034,
                0,
                0.9990454316139221
            ]
        }
    ],
    "materials" : [
        {
            "doubleSided" : true,
            "name" : "PBR_tank",
            "pbrMetallicRoughness" : {
                "baseColorTexture" : {
                    "index" : 0
                },
                "metallicRoughnessTexture" : {
                    "index" : 1
                }
            }
        }
    ],
    "meshes" : [
        {
            "name" : "Cylinder.018",
            "primitives" : [
                {
                    "attributes" : {
                        "POSITION" : 0,
                        "NORMAL" : 1,
                        "TEXCOORD_0" : 2
                    },
                    "indices" : 3,
                    "material" : 0
                }
            ]
        }
    ],
    "textures" : [
        {
            "sampler" : 0,
            "source" : 0
        },
        {
            "sampler" : 0,
            "source" : 1
        }
    ],
    "images" : [
        {
            "bufferView" : 4,
            "mimeType" : "image/png",
            "name" : "tank_diffuse"
        },
        {
            "bufferView" : 5,
            "mimeType" : "image/png",
            "name" : "tank_metalness-tank_roughness"
        }
    ],
    "accessors" : [
        {
            "bufferView" : 0,
            "componentType" : 5126,
            "count" : 2078,
            "max" : [
                1.041782259941101,
                2.4999992847442627,
                0.9962062835693359
            ],
            "min" : [
                -0.9962062835693359,
                -2.4999983310699463,
                -0.9962062239646912
            ],
            "type" : "VEC3"
        },
        {
            "bufferView" : 1,
            "componentType" : 5126,
            "count" : 2078,
            "type" : "VEC3"
        },
        {
            "bufferView" : 2,
            "componentType" : 5126,
            "count" : 2078,
            "type" : "VEC2"
        },
        {
            "bufferView" : 3,
            "componentType" : 5123,
            "count" : 6714,
            "type" : "SCALAR"
        }
    ],
    "bufferViews" : [
        {
            "buffer" : 0,
            "byteLength" : 24936,
            "byteOffset" : 0
        },
        {
            "buffer" : 0,
            "byteLength" : 24936,
            "byteOffset" : 24936
        },
        {
            "buffer" : 0,
            "byteLength" : 16624,
            "byteOffset" : 49872
        },
        {
            "buffer" : 0,
            "byteLength" : 13428,
            "byteOffset" : 66496
        },
        {
            "buffer" : 0,
            "byteLength" : 34420,
            "byteOffset" : 79924
        },
        {
            "buffer" : 0,
            "byteLength" : 34394,
            "byteOffset" : 114344
        }
    ],
    "samplers" : [
        {
            "magFilter" : 9729,
            "minFilter" : 9987
        }
    ],
    "buffers" : [
        {
            "byteLength" : 148740,
            "uri" : "data:application/octet-stream;base64,"
        }
    ]
}
